<svg width="275" height="113" viewBox="0 0 275 113" fill="none" xmlns="http://www.w3.org/2000/svg">
<path d="M12.4858 15.4545L23.7358 50.8182H24.1676L35.4403 15.4545H46.3494L30.304 62H17.6222L1.55398 15.4545H12.4858ZM56.9494 62.6591C54.7222 62.6591 52.7373 62.2727 50.9949 61.5C49.2525 60.7121 47.8737 59.553 46.8585 58.0227C45.8585 56.4773 45.3585 54.553 45.3585 52.25C45.3585 50.3106 45.7146 48.6818 46.4267 47.3636C47.1388 46.0455 48.1085 44.9848 49.3358 44.1818C50.5631 43.3788 51.957 42.7727 53.5176 42.3636C55.0934 41.9545 56.7449 41.6667 58.4722 41.5C60.5025 41.2879 62.1388 41.0909 63.3812 40.9091C64.6237 40.7121 65.5252 40.4242 66.0858 40.0455C66.6464 39.6667 66.9267 39.1061 66.9267 38.3636V38.2273C66.9267 36.7879 66.4722 35.6742 65.5631 34.8864C64.6691 34.0985 63.3964 33.7045 61.7449 33.7045C60.0025 33.7045 58.6161 34.0909 57.5858 34.8636C56.5555 35.6212 55.8737 36.5758 55.5403 37.7273L46.5858 37C47.0403 34.8788 47.9343 33.0455 49.2676 31.5C50.6009 29.9394 52.3206 28.7424 54.4267 27.9091C56.5479 27.0606 59.0025 26.6364 61.7903 26.6364C63.7297 26.6364 65.5858 26.8636 67.3585 27.3182C69.1464 27.7727 70.7297 28.4773 72.1085 29.4318C73.5025 30.3864 74.6009 31.6136 75.404 33.1136C76.207 34.5985 76.6085 36.3788 76.6085 38.4545V62H67.4267V57.1591H67.154C66.5934 58.25 65.8434 59.2121 64.904 60.0455C63.9646 60.8636 62.8358 61.5076 61.5176 61.9773C60.1994 62.4318 58.6767 62.6591 56.9494 62.6591ZM59.7222 55.9773C61.1464 55.9773 62.404 55.697 63.4949 55.1364C64.5858 54.5606 65.4419 53.7879 66.0631 52.8182C66.6843 51.8485 66.9949 50.75 66.9949 49.5227V45.8182C66.6919 46.0152 66.2752 46.197 65.7449 46.3636C65.2297 46.5152 64.6464 46.6591 63.9949 46.7955C63.3434 46.9167 62.6919 47.0303 62.0403 47.1364C61.3888 47.2273 60.7979 47.3106 60.2676 47.3864C59.1312 47.553 58.1388 47.8182 57.2903 48.1818C56.4419 48.5455 55.7828 49.0379 55.3131 49.6591C54.8434 50.2652 54.6085 51.0227 54.6085 51.9318C54.6085 53.25 55.0858 54.2576 56.0403 54.9545C57.01 55.6364 58.2373 55.9773 59.7222 55.9773ZM105.606 47.1364V27.0909H115.288V62H105.993V55.6591H105.629C104.841 57.7045 103.53 59.3485 101.697 60.5909C99.879 61.8333 97.6593 62.4545 95.0381 62.4545C92.7047 62.4545 90.6517 61.9242 88.879 60.8636C87.1062 59.803 85.7199 58.2955 84.7199 56.3409C83.735 54.3864 83.235 52.0455 83.2199 49.3182V27.0909H92.9017V47.5909C92.9169 49.6515 93.4699 51.2803 94.5608 52.4773C95.6517 53.6742 97.1138 54.2727 98.9472 54.2727C100.114 54.2727 101.205 54.0076 102.22 53.4773C103.235 52.9318 104.053 52.1288 104.674 51.0682C105.311 50.0076 105.621 48.697 105.606 47.1364ZM131.814 15.4545V62H122.132V15.4545H131.814ZM157.238 27.0909V34.3636H136.215V27.0909H157.238ZM140.988 18.7273H150.67V51.2727C150.67 52.1667 150.806 52.8636 151.079 53.3636C151.352 53.8485 151.73 54.1894 152.215 54.3864C152.715 54.5833 153.291 54.6818 153.943 54.6818C154.397 54.6818 154.852 54.6439 155.306 54.5682C155.761 54.4773 156.109 54.4091 156.352 54.3636L157.874 61.5682C157.39 61.7197 156.708 61.8939 155.829 62.0909C154.95 62.303 153.882 62.4318 152.624 62.4773C150.291 62.5682 148.246 62.2576 146.488 61.5455C144.746 60.8333 143.39 59.7273 142.42 58.2273C141.45 56.7273 140.973 54.8333 140.988 52.5455V18.7273Z" fill="white"/>
<path d="M163.577 62V15.4545H173.418V53.8864H193.372V62H163.577ZM199.707 62V27.0909H209.389V62H199.707ZM204.571 22.5909C203.132 22.5909 201.897 22.1136 200.866 21.1591C199.851 20.1894 199.344 19.0303 199.344 17.6818C199.344 16.3485 199.851 15.2045 200.866 14.25C201.897 13.2803 203.132 12.7955 204.571 12.7955C206.01 12.7955 207.238 13.2803 208.253 14.25C209.283 15.2045 209.798 16.3485 209.798 17.6818C209.798 19.0303 209.283 20.1894 208.253 21.1591C207.238 22.1136 206.01 22.5909 204.571 22.5909ZM235.918 27.0909V34.3636H214.372V27.0909H235.918ZM219.304 62V24.5682C219.304 22.0379 219.796 19.9394 220.781 18.2727C221.781 16.6061 223.145 15.3561 224.872 14.5227C226.599 13.6894 228.562 13.2727 230.759 13.2727C232.243 13.2727 233.599 13.3864 234.827 13.6136C236.069 13.8409 236.993 14.0455 237.599 14.2273L235.872 21.5C235.493 21.3788 235.024 21.2651 234.463 21.1591C233.918 21.053 233.357 21 232.781 21C231.357 21 230.365 21.3333 229.804 22C229.243 22.6515 228.963 23.5682 228.963 24.75V62H219.304ZM256.491 62.6818C252.901 62.6818 249.81 61.9545 247.219 60.5C244.643 59.0303 242.658 56.9545 241.264 54.2727C239.87 51.5758 239.173 48.3864 239.173 44.7045C239.173 41.1136 239.87 37.9621 241.264 35.25C242.658 32.5379 244.62 30.4242 247.151 28.9091C249.696 27.3939 252.681 26.6364 256.105 26.6364C258.408 26.6364 260.552 27.0076 262.537 27.75C264.537 28.4773 266.279 29.5758 267.764 31.0455C269.264 32.5152 270.431 34.3636 271.264 36.5909C272.098 38.803 272.514 41.3939 272.514 44.3636V47.0227H243.037V41.0227H263.401C263.401 39.6288 263.098 38.3939 262.491 37.3182C261.885 36.2424 261.045 35.4015 259.969 34.7955C258.908 34.1742 257.673 33.8636 256.264 33.8636C254.795 33.8636 253.491 34.2045 252.355 34.8864C251.234 35.553 250.355 36.4545 249.719 37.5909C249.082 38.7121 248.757 39.9621 248.741 41.3409V47.0455C248.741 48.7727 249.06 50.2652 249.696 51.5227C250.348 52.7803 251.264 53.75 252.446 54.4318C253.628 55.1136 255.029 55.4545 256.651 55.4545C257.726 55.4545 258.711 55.303 259.605 55C260.499 54.697 261.264 54.2424 261.901 53.6364C262.537 53.0303 263.022 52.2879 263.355 51.4091L272.31 52C271.855 54.1515 270.923 56.0303 269.514 57.6364C268.12 59.2273 266.317 60.4697 264.105 61.3636C261.908 62.2424 259.37 62.6818 256.491 62.6818Z" fill="#14B8A5"/>
<path d="M53.9085 96.1818C53.8361 95.4531 53.5143 94.8736 52.9433 94.4432C52.3723 94.0128 51.6542 93.7976 50.7892 93.7976C50.1798 93.7976 49.6429 93.902 49.1784 94.1108C48.7182 94.3196 48.3559 94.6094 48.0917 94.9801C47.8318 95.3466 47.7018 95.7642 47.7018 96.233C47.7018 96.5781 47.7764 96.8807 47.9255 97.1406C48.0747 97.4006 48.275 97.6243 48.5264 97.8118C48.7821 97.995 49.0633 98.1527 49.3702 98.2848C49.6812 98.4169 49.9944 98.5277 50.3098 98.6172L51.6905 99.0135C52.1081 99.1286 52.5257 99.2756 52.9433 99.4545C53.3609 99.6335 53.7423 99.8594 54.0875 100.132C54.4369 100.401 54.716 100.731 54.9248 101.123C55.1379 101.511 55.2444 101.977 55.2444 102.523C55.2444 103.222 55.0633 103.85 54.7011 104.408C54.3389 104.967 53.819 105.41 53.1415 105.738C52.4639 106.062 51.6521 106.224 50.7061 106.224C49.8155 106.224 49.042 106.077 48.3858 105.783C47.7295 105.484 47.2139 105.073 46.8389 104.549C46.4639 104.025 46.253 103.418 46.2061 102.727H47.4334C47.476 103.243 47.6464 103.68 47.9447 104.038C48.243 104.396 48.6308 104.668 49.1081 104.856C49.5854 105.039 50.118 105.131 50.7061 105.131C51.3581 105.131 51.9376 105.022 52.4447 104.805C52.9561 104.583 53.3567 104.276 53.6464 103.884C53.9405 103.488 54.0875 103.028 54.0875 102.504C54.0875 102.06 53.9724 101.69 53.7423 101.391C53.5122 101.089 53.1905 100.835 52.7771 100.631C52.368 100.426 51.8929 100.245 51.3517 100.087L49.7856 99.6271C48.7586 99.3203 47.9618 98.8963 47.395 98.3551C46.8282 97.8139 46.5449 97.1236 46.5449 96.2841C46.5449 95.581 46.7324 94.9631 47.1074 94.4304C47.4866 93.8935 47.998 93.4759 48.6415 93.1776C49.2892 92.875 50.0157 92.7237 50.8211 92.7237C51.6351 92.7237 52.3552 92.8729 52.9817 93.1712C53.6081 93.4695 54.1045 93.8807 54.471 94.4048C54.8417 94.9247 55.0399 95.517 55.0655 96.1818H53.9085ZM62.3038 106.205C61.3876 106.205 60.595 105.991 59.926 105.565C59.2569 105.135 58.7392 104.54 58.3727 103.782C58.0105 103.019 57.8294 102.141 57.8294 101.148C57.8294 100.16 58.0105 99.282 58.3727 98.5149C58.7392 97.7436 59.2442 97.1406 59.8876 96.706C60.5354 96.267 61.2832 96.0476 62.1312 96.0476C62.6639 96.0476 63.1774 96.1456 63.6717 96.3416C64.166 96.5334 64.6092 96.8295 65.0013 97.2301C65.3976 97.6264 65.7108 98.1271 65.9409 98.7322C66.171 99.3331 66.2861 100.045 66.2861 100.867V101.43H58.6156V100.426H65.1227C65.1227 99.7955 64.9949 99.2287 64.7392 98.7259C64.4878 98.2187 64.1362 97.8182 63.6845 97.5241C63.2371 97.2301 62.7193 97.0831 62.1312 97.0831C61.5091 97.0831 60.9615 97.2493 60.4885 97.5817C60.0155 97.9141 59.6447 98.353 59.3763 98.8984C59.1121 99.4439 58.9778 100.04 58.9736 100.688V101.289C58.9736 102.069 59.1078 102.751 59.3763 103.335C59.649 103.914 60.0346 104.364 60.5332 104.683C61.0318 105.003 61.622 105.163 62.3038 105.163C62.7683 105.163 63.1753 105.09 63.5247 104.945C63.8784 104.8 64.1746 104.607 64.4132 104.364C64.6561 104.116 64.8393 103.846 64.9629 103.552L66.0432 103.903C65.894 104.317 65.649 104.698 65.3081 105.048C64.9714 105.397 64.5496 105.678 64.0425 105.891C63.5396 106.1 62.9601 106.205 62.3038 106.205ZM73.0786 106.205C72.2007 106.205 71.4358 105.985 70.7838 105.546C70.1361 105.107 69.6333 104.506 69.2753 103.744C68.9173 102.981 68.7384 102.112 68.7384 101.136C68.7384 100.151 68.9195 99.2756 69.2817 98.5085C69.6482 97.7415 70.1553 97.1406 70.803 96.706C71.4507 96.267 72.2029 96.0476 73.0594 96.0476C73.7156 96.0476 74.3101 96.1754 74.8428 96.4311C75.3754 96.6825 75.8144 97.0384 76.1595 97.4986C76.509 97.9545 76.7284 98.4872 76.8179 99.0966H75.6673C75.548 98.5426 75.2604 98.0696 74.8044 97.6776C74.3527 97.2812 73.7774 97.0831 73.0786 97.0831C72.4521 97.0831 71.8982 97.2536 71.4166 97.5945C70.9351 97.9311 70.558 98.402 70.2852 99.0071C70.0168 99.608 69.8825 100.305 69.8825 101.097C69.8825 101.894 70.0146 102.599 70.2789 103.213C70.5431 103.822 70.9138 104.3 71.3911 104.645C71.8726 104.99 72.4351 105.163 73.0786 105.163C73.5132 105.163 73.9095 105.082 74.2675 104.92C74.6297 104.754 74.9323 104.519 75.1752 104.217C75.4223 103.914 75.5885 103.554 75.6737 103.136H76.8243C76.7391 103.729 76.5281 104.257 76.1915 104.722C75.8591 105.182 75.4266 105.544 74.8939 105.808C74.3655 106.072 73.7604 106.205 73.0786 106.205ZM85.9515 102.248V96.1818H87.0893V106H85.9515V104.37H85.862C85.6319 104.873 85.2676 105.293 84.769 105.629C84.2704 105.962 83.661 106.128 82.9409 106.128C82.3144 106.128 81.7583 105.991 81.2725 105.719C80.7867 105.442 80.4053 105.037 80.1284 104.504C79.8514 103.972 79.7129 103.317 79.7129 102.542V96.1818H80.8507V102.472C80.8507 103.239 81.0765 103.857 81.5282 104.325C81.9799 104.79 82.5595 105.022 83.2668 105.022C83.71 105.022 84.1362 104.915 84.5453 104.702C84.9543 104.489 85.291 104.178 85.5552 103.769C85.8194 103.356 85.9515 102.849 85.9515 102.248ZM90.5515 106V96.1818H91.6574V97.6903H91.7405C91.9365 97.196 92.2774 96.7976 92.7632 96.495C93.2532 96.1882 93.8072 96.0348 94.4251 96.0348C94.5189 96.0348 94.6233 96.0369 94.7383 96.0412C94.8534 96.0455 94.9493 96.0497 95.026 96.054V97.2109C94.9748 97.2024 94.8853 97.1896 94.7575 97.1726C94.6297 97.1555 94.4912 97.147 94.342 97.147C93.8307 97.147 93.3747 97.2557 92.9741 97.473C92.5778 97.6861 92.2646 97.9822 92.0345 98.3615C91.8044 98.7408 91.6893 99.1733 91.6893 99.6591V106H90.5515ZM97.4303 106V96.1818H98.5745V106H97.4303ZM98.012 94.4943C97.7776 94.4943 97.5774 94.4155 97.4112 94.2578C97.245 94.0959 97.1619 93.902 97.1619 93.6761C97.1619 93.4503 97.245 93.2585 97.4112 93.1009C97.5774 92.9389 97.7776 92.858 98.012 92.858C98.2464 92.858 98.4467 92.9389 98.6129 93.1009C98.7791 93.2585 98.8622 93.4503 98.8622 93.6761C98.8622 93.902 98.7791 94.0959 98.6129 94.2578C98.4467 94.4155 98.2464 94.4943 98.012 94.4943ZM103.171 99.8636V106H102.034V96.1818H103.139V97.7223H103.242C103.472 97.2195 103.83 96.8168 104.316 96.5142C104.806 96.2074 105.411 96.054 106.131 96.054C106.791 96.054 107.371 96.1925 107.87 96.4695C108.372 96.7422 108.762 97.1449 109.039 97.6776C109.321 98.2102 109.461 98.8643 109.461 99.6399V106H108.323V99.7102C108.323 98.9048 108.097 98.2678 107.646 97.799C107.198 97.3303 106.597 97.0959 105.843 97.0959C105.328 97.0959 104.87 97.2067 104.469 97.4283C104.068 97.6499 103.751 97.9695 103.517 98.3871C103.286 98.8004 103.171 99.2926 103.171 99.8636ZM116.653 109.886C115.984 109.886 115.398 109.799 114.895 109.624C114.392 109.454 113.968 109.219 113.623 108.921C113.278 108.623 113.01 108.288 112.818 107.918L113.751 107.304C113.892 107.551 114.079 107.794 114.314 108.033C114.552 108.271 114.861 108.469 115.241 108.627C115.624 108.785 116.095 108.864 116.653 108.864C117.522 108.864 118.223 108.646 118.756 108.212C119.293 107.777 119.562 107.102 119.562 106.185V103.974H119.459C119.327 104.272 119.138 104.57 118.89 104.869C118.643 105.163 118.319 105.408 117.919 105.604C117.522 105.8 117.03 105.898 116.442 105.898C115.658 105.898 114.961 105.704 114.352 105.316C113.747 104.928 113.27 104.374 112.92 103.654C112.575 102.93 112.402 102.067 112.402 101.065C112.402 100.072 112.571 99.1989 112.907 98.4446C113.248 97.6903 113.723 97.1023 114.333 96.6804C114.942 96.2585 115.652 96.0476 116.461 96.0476C117.062 96.0476 117.561 96.1541 117.957 96.3672C118.353 96.576 118.671 96.8359 118.91 97.147C119.152 97.4581 119.342 97.7607 119.478 98.0547H119.593V96.1818H120.706V106.256C120.706 107.087 120.529 107.771 120.175 108.308C119.821 108.844 119.34 109.241 118.731 109.496C118.121 109.756 117.429 109.886 116.653 109.886ZM116.576 104.856C117.207 104.856 117.746 104.705 118.194 104.402C118.641 104.095 118.984 103.656 119.223 103.085C119.461 102.514 119.581 101.835 119.581 101.046C119.581 100.279 119.464 99.5994 119.229 99.0071C118.995 98.4105 118.654 97.9418 118.206 97.6009C117.763 97.2557 117.22 97.0831 116.576 97.0831C115.92 97.0831 115.366 97.2599 114.915 97.6136C114.463 97.9673 114.122 98.4446 113.892 99.0455C113.662 99.642 113.547 100.309 113.547 101.046C113.547 101.796 113.664 102.459 113.898 103.034C114.133 103.605 114.476 104.053 114.927 104.376C115.379 104.696 115.929 104.856 116.576 104.856ZM130.473 109.682C130.247 109.682 130.036 109.661 129.84 109.618C129.644 109.575 129.489 109.528 129.374 109.477L129.68 108.474C130.068 108.593 130.413 108.636 130.716 108.602C131.019 108.572 131.287 108.435 131.521 108.192C131.756 107.954 131.965 107.587 132.148 107.093L132.506 106.096L128.894 96.1818H130.128L133.043 104.498H133.132L136.047 96.1818H137.281L133.126 107.553C132.951 108.026 132.736 108.42 132.48 108.736C132.224 109.055 131.928 109.292 131.592 109.445C131.259 109.603 130.886 109.682 130.473 109.682ZM143.421 106.205C142.573 106.205 141.823 105.989 141.171 105.559C140.523 105.129 140.016 104.534 139.65 103.776C139.283 103.013 139.1 102.133 139.1 101.136C139.1 100.13 139.283 99.2457 139.65 98.483C140.016 97.7159 140.523 97.1193 141.171 96.6932C141.823 96.2628 142.573 96.0476 143.421 96.0476C144.269 96.0476 145.017 96.2628 145.665 96.6932C146.312 97.1236 146.82 97.7202 147.186 98.483C147.557 99.2457 147.742 100.13 147.742 101.136C147.742 102.133 147.559 103.013 147.192 103.776C146.826 104.534 146.317 105.129 145.665 105.559C145.017 105.989 144.269 106.205 143.421 106.205ZM143.421 105.163C144.103 105.163 144.68 104.979 145.153 104.613C145.626 104.246 145.984 103.759 146.227 103.149C146.474 102.54 146.598 101.869 146.598 101.136C146.598 100.403 146.474 99.7294 146.227 99.1158C145.984 98.5021 145.626 98.0099 145.153 97.6392C144.68 97.2685 144.103 97.0831 143.421 97.0831C142.744 97.0831 142.166 97.2685 141.689 97.6392C141.216 98.0099 140.856 98.5021 140.609 99.1158C140.366 99.7294 140.244 100.403 140.244 101.136C140.244 101.869 140.366 102.54 140.609 103.149C140.856 103.759 141.216 104.246 141.689 104.613C142.162 104.979 142.739 105.163 143.421 105.163ZM156.928 102.248V96.1818H158.066V106H156.928V104.37H156.839C156.609 104.873 156.245 105.293 155.746 105.629C155.247 105.962 154.638 106.128 153.918 106.128C153.291 106.128 152.735 105.991 152.249 105.719C151.764 105.442 151.382 105.037 151.105 104.504C150.828 103.972 150.69 103.317 150.69 102.542V96.1818H151.828V102.472C151.828 103.239 152.053 103.857 152.505 104.325C152.957 104.79 153.536 105.022 154.244 105.022C154.687 105.022 155.113 104.915 155.522 104.702C155.931 104.489 156.268 104.178 156.532 103.769C156.796 103.356 156.928 102.849 156.928 102.248ZM161.528 106V96.1818H162.634V97.6903H162.717C162.913 97.196 163.254 96.7976 163.74 96.495C164.23 96.1882 164.784 96.0348 165.402 96.0348C165.496 96.0348 165.6 96.0369 165.715 96.0412C165.83 96.0455 165.926 96.0497 166.003 96.054V97.2109C165.952 97.2024 165.862 97.1896 165.734 97.1726C165.607 97.1555 165.468 97.147 165.319 97.147C164.808 97.147 164.352 97.2557 163.951 97.473C163.555 97.6861 163.242 97.9822 163.011 98.3615C162.781 98.7408 162.666 99.1733 162.666 99.6591V106H161.528ZM175.045 92.9091V106H173.907V92.9091H175.045ZM182.475 106.205C181.559 106.205 180.766 105.991 180.097 105.565C179.428 105.135 178.91 104.54 178.544 103.782C178.182 103.019 178 102.141 178 101.148C178 100.16 178.182 99.282 178.544 98.5149C178.91 97.7436 179.415 97.1406 180.059 96.706C180.706 96.267 181.454 96.0476 182.302 96.0476C182.835 96.0476 183.348 96.1456 183.843 96.3416C184.337 96.5334 184.78 96.8295 185.172 97.2301C185.569 97.6264 185.882 98.1271 186.112 98.7322C186.342 99.3331 186.457 100.045 186.457 100.867V101.43H178.787V100.426H185.294C185.294 99.7955 185.166 99.2287 184.91 98.7259C184.659 98.2187 184.307 97.8182 183.856 97.5241C183.408 97.2301 182.89 97.0831 182.302 97.0831C181.68 97.0831 181.133 97.2493 180.66 97.5817C180.187 97.9141 179.816 98.353 179.547 98.8984C179.283 99.4439 179.149 100.04 179.145 100.688V101.289C179.145 102.069 179.279 102.751 179.547 103.335C179.82 103.914 180.206 104.364 180.704 104.683C181.203 105.003 181.793 105.163 182.475 105.163C182.939 105.163 183.346 105.09 183.696 104.945C184.049 104.8 184.346 104.607 184.584 104.364C184.827 104.116 185.01 103.846 185.134 103.552L186.214 103.903C186.065 104.317 185.82 104.698 185.479 105.048C185.143 105.397 184.721 105.678 184.214 105.891C183.711 106.1 183.131 106.205 182.475 106.205ZM193.16 109.886C192.491 109.886 191.905 109.799 191.402 109.624C190.9 109.454 190.476 109.219 190.13 108.921C189.785 108.623 189.517 108.288 189.325 107.918L190.258 107.304C190.399 107.551 190.586 107.794 190.821 108.033C191.059 108.271 191.368 108.469 191.748 108.627C192.131 108.785 192.602 108.864 193.16 108.864C194.029 108.864 194.73 108.646 195.263 108.212C195.8 107.777 196.069 107.102 196.069 106.185V103.974H195.966C195.834 104.272 195.645 104.57 195.397 104.869C195.15 105.163 194.826 105.408 194.426 105.604C194.029 105.8 193.537 105.898 192.949 105.898C192.165 105.898 191.468 105.704 190.859 105.316C190.254 104.928 189.777 104.374 189.427 103.654C189.082 102.93 188.909 102.067 188.909 101.065C188.909 100.072 189.078 99.1989 189.414 98.4446C189.755 97.6903 190.23 97.1023 190.84 96.6804C191.449 96.2585 192.159 96.0476 192.968 96.0476C193.569 96.0476 194.068 96.1541 194.464 96.3672C194.86 96.576 195.178 96.8359 195.417 97.147C195.659 97.4581 195.849 97.7607 195.985 98.0547H196.101V96.1818H197.213V106.256C197.213 107.087 197.036 107.771 196.682 108.308C196.328 108.844 195.847 109.241 195.238 109.496C194.628 109.756 193.936 109.886 193.16 109.886ZM193.083 104.856C193.714 104.856 194.253 104.705 194.701 104.402C195.148 104.095 195.491 103.656 195.73 103.085C195.968 102.514 196.088 101.835 196.088 101.046C196.088 100.279 195.971 99.5994 195.736 99.0071C195.502 98.4105 195.161 97.9418 194.713 97.6009C194.27 97.2557 193.727 97.0831 193.083 97.0831C192.427 97.0831 191.873 97.2599 191.422 97.6136C190.97 97.9673 190.629 98.4446 190.399 99.0455C190.169 99.642 190.054 100.309 190.054 101.046C190.054 101.796 190.171 102.459 190.405 103.034C190.64 103.605 190.983 104.053 191.434 104.376C191.886 104.696 192.436 104.856 193.083 104.856ZM203.417 106.224C202.825 106.224 202.284 106.109 201.794 105.879C201.304 105.644 200.914 105.308 200.624 104.869C200.334 104.425 200.189 103.888 200.189 103.258C200.189 102.772 200.281 102.363 200.464 102.031C200.647 101.698 200.907 101.425 201.244 101.212C201.581 100.999 201.979 100.831 202.439 100.707C202.899 100.584 203.407 100.488 203.96 100.42C204.51 100.352 204.975 100.292 205.354 100.241C205.737 100.19 206.029 100.109 206.23 99.9979C206.43 99.8871 206.53 99.7081 206.53 99.4609V99.2308C206.53 98.5618 206.33 98.0355 205.929 97.652C205.533 97.2642 204.962 97.0703 204.216 97.0703C203.509 97.0703 202.931 97.2259 202.484 97.5369C202.041 97.848 201.73 98.2145 201.551 98.6364L200.47 98.2464C200.692 97.7095 200.999 97.2812 201.391 96.9616C201.783 96.6378 202.222 96.4055 202.708 96.2649C203.193 96.12 203.686 96.0476 204.184 96.0476C204.559 96.0476 204.949 96.0966 205.354 96.1946C205.763 96.2926 206.142 96.4631 206.492 96.706C206.841 96.9446 207.125 97.2791 207.342 97.7095C207.559 98.1357 207.668 98.6768 207.668 99.3331V106H206.53V104.447H206.46C206.323 104.737 206.121 105.018 205.853 105.29C205.584 105.563 205.247 105.787 204.843 105.962C204.438 106.136 203.963 106.224 203.417 106.224ZM203.571 105.182C204.176 105.182 204.7 105.048 205.143 104.779C205.586 104.511 205.927 104.155 206.166 103.712C206.409 103.264 206.53 102.772 206.53 102.235V100.816C206.445 100.897 206.302 100.969 206.102 101.033C205.906 101.097 205.678 101.155 205.418 101.206C205.162 101.253 204.907 101.293 204.651 101.327C204.395 101.362 204.165 101.391 203.96 101.417C203.407 101.485 202.934 101.592 202.541 101.737C202.149 101.881 201.849 102.082 201.64 102.337C201.431 102.589 201.327 102.913 201.327 103.309C201.327 103.906 201.54 104.368 201.966 104.696C202.392 105.02 202.927 105.182 203.571 105.182ZM214.98 106.205C214.102 106.205 213.337 105.985 212.685 105.546C212.037 105.107 211.534 104.506 211.176 103.744C210.819 102.981 210.64 102.112 210.64 101.136C210.64 100.151 210.821 99.2756 211.183 98.5085C211.549 97.7415 212.056 97.1406 212.704 96.706C213.352 96.267 214.104 96.0476 214.961 96.0476C215.617 96.0476 216.211 96.1754 216.744 96.4311C217.277 96.6825 217.716 97.0384 218.061 97.4986C218.41 97.9545 218.63 98.4872 218.719 99.0966H217.569C217.449 98.5426 217.162 98.0696 216.706 97.6776C216.254 97.2812 215.679 97.0831 214.98 97.0831C214.353 97.0831 213.799 97.2536 213.318 97.5945C212.836 97.9311 212.459 98.402 212.186 99.0071C211.918 99.608 211.784 100.305 211.784 101.097C211.784 101.894 211.916 102.599 212.18 103.213C212.444 103.822 212.815 104.3 213.292 104.645C213.774 104.99 214.336 105.163 214.98 105.163C215.414 105.163 215.811 105.082 216.169 104.92C216.531 104.754 216.833 104.519 217.076 104.217C217.324 103.914 217.49 103.554 217.575 103.136H218.725C218.64 103.729 218.429 104.257 218.093 104.722C217.76 105.182 217.328 105.544 216.795 105.808C216.267 106.072 215.662 106.205 214.98 106.205ZM222.407 109.682C222.181 109.682 221.97 109.661 221.774 109.618C221.578 109.575 221.422 109.528 221.307 109.477L221.614 108.474C222.002 108.593 222.347 108.636 222.65 108.602C222.952 108.572 223.221 108.435 223.455 108.192C223.689 107.954 223.898 107.587 224.081 107.093L224.439 106.096L220.828 96.1818H222.061L224.976 104.498H225.066L227.981 96.1818H229.214L225.059 107.553C224.885 108.026 224.669 108.42 224.414 108.736C224.158 109.055 223.862 109.292 223.525 109.445C223.193 109.603 222.82 109.682 222.407 109.682Z" fill="white" fill-opacity="0.6"/>
</svg>
